<svg xmlns="http://www.w3.org/2000/svg" width="300" height="300"><path data-name="Color Fill 1" d="M137 46v2l8 7v2l3 2v2l3 2v2h1l2 3 11 4c.9-5.674 4.332-10.21 6-15v-5h1v-3h1v-4c1.083-2.465 2.545-3.616 6-4a15.683 15.683 0 011 6h-1l-1 7h-1v4h-1l-2 9h-1l-1 5h-1l-1 6a7.744 7.744 0 012 3l3-1 1-2h2l2-3h2l4-5h2l2-3h2l1-2c2.31-2.155 3.889-3.505 8-4a12.709 12.709 0 011 5c-2.482 1.375-3.246 3.735-5 5h-2l-1 2-3 1-4 5h-2l-2 3c-3.724 2.611-6.231.863-7 7 1.139 1.139.4 0 1 2 4.971.073 10.52.132 14-1h4v-1l4-1v-1h3l1-2h2l2-3h2l1-2h2v-1c2.671-1.526 3.858-1.8 8-2a10.6 10.6 0 011 4c-1.246.664-1.382 1.59-2 2h-2l-1 2-4 1-2 3h-2l-1 2h-2v1l-6 2v1h-3v1h-4v1h-13c.909 4.658 5.275 19.655 3 26h-1v2h-1v3h-1v2h-1l-1 3h16c2.33-2.036 4.8-.829 8-2 5.633-2.06 15.2-7.317 16-14-6.94-4.141-1.751-20.492 4-22 3.183-5 17.9-2.767 22 0l4 5c1.8 1.741 2 4.394 2 8-2 1.724-.843 2.321-2 4h-1l-4 5h-1v14h-1l-1 4h-1v2l-2 1v2l-4 3-5 6h-2l-2 3-4 1v1h-3v1h-2v1h-3v1l-14 2c-2.343.786-4.979 2.4-8 3a55.048 55.048 0 004 21c1.262.667 1.37 1.58 2 2h2l1 2h2l1 2 11 3v1l4 1v1h2l1 2h2l1 2h2l1 2 6-4v-1h2v-1c5.984-2.708 14.018.011 19 1l5 6c.139 4.216-.111 11.009-2 13-1.18 4.824-4.878 8.028-8 11l-1 2c-2.261 1.624-4.275 1.939-6 4-7.16.084-12.907.028-18-2v-1h-3v-1h-2v-1h-4v-1h-4v-1h-3v-1l-8-1v-1h-3v-1c-2.037-.259-1.191.463-2 1-3.42.83-10.139 7.594-11 11 5.39.177 12.564 1.684 16 4l1 2c3.552 3.319 6.968 7.235 13 8 3.1-4.828 11.977-4.154 20-4 2.765 4.767 3.1 3.755 3 12-1.965 1.787-.841 1.946-2 4h-1v2l-2 1v2l-7 6-1 2-6 2v1h-3v1h-2v1c-2.66.925-8.831.04-10-1-3.286-.914-4.7-3.087-7-5v-1h-2l-1-2h-2v-1h-2v-1h-4v-1h-14v1h-8v1l-6 1v1h-2v1l-6 1v1h-24v-1l-13-3v1h-2v1H93v-1H76v1h-8v1h-7v1h-3v1h-3v1h-3v1h-2v1l-6 1v1l-6 2v1h-5c-1.754.531-7.754 2.125-11 1v-1l-4-1c-.945-1.8-1.385-1.574-2-4h-1v-8c1.991-1.737.838-2.284 2-4l3-2v-2l4-3v-1h2l2-3h2v-1h2v-1c3.809-1.677 23.5-4.822 30-3v1h30a38.991 38.991 0 00-3-8h-1v-4h-1v-5h-1v-5h-1v-58a10.6 10.6 0 00-4-1l-10 11-3 2v2h-1v2l-2 1-1 4-2 1v2h-1l-3 4h-2c-1.094-2.078-1.611-1.771-2-5 1.244-1.071 1.054-1.765 2-3h1v-2l2-1v-2l2-1 1-4 2-1v-2l9-8v-1h2v-2c-3.374-.314-7.733-2.412-10-4v-1c-1.765-1.44-2.409-2.262-5-3l-3 4h-2l-2 3h-2l-4 5h-2l-3 4h-2l-2 3h-2l-1 2h-2v1c-1.36.918-1.759.713-4 1-.945-1.8-1.385-1.574-2-4 1.139-1.139.4 0 1-2h2c1.765-2.714 4.361-3.114 7-5l3-4h2l2-3 3-2v-1h2l1-2 3-1v-1a7.97 7.97 0 014-2c-.514-4.6-2.931-5.04-4-9-5.267.183-8.2 2.507-12 4h-3v1l-8 1-1 2-5 1a7.482 7.482 0 00-2-3v-1h1c3.909-6.563 9.678-4.382 17-7 3.437-1.229 5.483-3.5 10-4a38.179 38.179 0 00-2-9l1-29V82h1l2-10h1v-3h1v-4h1v-3h1v-3h1v-2l2-1c1.852-2.592-1.077-1.825 3-3v-1h3l17 19 4 3v2l3 2v2c1.158 1.3 3.555.939 6 1 1.847-1.7 9.165-2.049 13-2a96.02 96.02 0 014-24l1-9h1v-2h1v-3c1.1-2.437 3.145-3.846 4-7l4-1v1c3.865 1.056 3 2.25 5 5l7 6v1h2zm-13-4c-2.762.723-2.237.279-3 3-2.385 2.531-3.76 12.945-5 17v5h-1c-1.736 5.943 1.622 12.365-2 16-3.118 3.42-5.194.635-10 2v1h-7v1l-7 1-25-28h-1v1c-2.692 2.388-1.655 5.354-3 9h-1v4h-1v3h-1v3h-1v4h-1v22h-1l1 9c-.244 3.021-2.3 8.678-1 13h1v4h1v4h1l1 6 2 1 1 4 3 2v2c6.594 9.174 22.8 13 39 13h20l18-5v-1h2v-1l4-1 1-2 4-1 2-3h2l5-6 3-2v-2l2-1v-2l3-2 7-14c1-3.139-.525-8.368-1-10v-6h-1l-2-12h-1l-2-6h-1v-2l-2-1v-2l-4-3v-1h-2l-1-2h-2v-1h-2v-1h-4l-3-4h-1v-2l-3-2v-2l-2-1-1-3-6-5v-2h-1l-2-3h-2l-5-6h-1v-2zm3 18c4.612 2.077 6.971 6.355 7 13a19.166 19.166 0 01-7 1c-.962-1.736-3.942-7.827-2-12a11.165 11.165 0 002-2zM70 81c1.419 6.928 6.455 9.048 7 17-1.139 1.139-.4 0-1 2l-10 1c-2.514-4.8-2.081-11.469-2-19a3.983 3.983 0 002-2c2.01.574.865-.12 2 1h2zm56 29c-.917-4.315-2.119-11.955 1-15 .771-1.016 1.229-.984 2-2h2v1c1.413.053-.4-.785 1-1 3.469-.534 5.566.547 8 1l1 3h1v8h-1c-3.248 6.567-6.745 6.838-15 5zm-35 60c-.237 20.571-2.352 49.354 3 65v4h1l1 4h1l1 4 2 1v2l3 2v2h1c1.441 1.751 2.275 2.414 3 5 3.159.8 4.573 2.932 7 4h3v1h3v1c2.578.864 22.4 2.148 26 1v-1h3v-1l4-1v-1c3.48-1.5 25.184-4.741 31-3l11 4 2 3h2l1 2c2.579 2.388 3.8 2.889 9 3v-1l5-1v-1h2v-1h2l2-3c4.2-4.117 8.634-6.949 9-15l-12 1v1h-2l-1 2h-3v1a17.926 17.926 0 00-4-1c-1.959-2.247-5.507-3.211-8-5l-5-6-4-1v-1l-18-2v-4h1c.9-3.6 3.893-5.485 6-8h1c4.021-5.533 6.476-10.9 16-11v1l7 1v1h4v1h4v1l7 1v1h3v1c5.492 2.193 9.336 2.917 17 3 1.457-2.218 2.323-1.467 4-3l1-2c5.022-4.971 7.56-7.308 8-17-1.935-1.131-3.736-3.269-6-4-9.15-2.953-12.277 5.205-17 7h-5c-3.2-3.737-11.029-8.006-16-10l-6-1v-1h-2v-1h-2l-1-2h-2l-1-2h-2l-3-4c-2.259-2.224-6.791-23.481-5-26 .723-2.762.279-2.237 3-3 2.523-2.427 11.2-3.821 15-5h5v-1h3v-1h3v-1h3c5.715-2.537 18.019-13.913 20-20v-15l2-1c2.432-2.728 5.068-4.762 6-9l-6-5c-6.5-.542-13.262-2.788-15 4h-1c-1.376 2.006-1.1 9.05 0 11l2 1v6c-1.994 1.725-.844 2.324-2 4l-2 1-5 6-4 1c-10.412 5.536-20.588 5.993-37 6-6.7 12.233-19.738 21.329-33 27l-15 3v1H91zm-11-40h-2v1l-3-1c-1.347-6.882-.226-10.881 1-17 4.692-2.543 7.34-4.909 15-5v1h2v1l4 3v2l3 2v2h1l1 5a12.708 12.708 0 01-5 1c-.855-1.693-6.771-10.408-8-11h-3v1c-.879.74-4.379.87-5 2v11s-.694.185-1 2zm35-11h5a10.6 10.6 0 011 4c-2.821 1.547-3.4 2.772-8 3a12.71 12.71 0 01-1-5 7.49 7.49 0 003-2zm22 2h6c1.547 2.821 2.772 3.4 3 8-1.956 1.785-.853 1.9-2 4h-1v2h-1v2h-1v3h-1c-1.869 3.5-3.8 6.908-8 8-1.512 1.613-13.712 5.313-18 4v-1h-4v-1c-2.535-.832-5.031.307-7-1l-1-2-2-1v-5l4-3v-1h4v-1l6-2v-1h2v-1h3v-1h2v-1h2l1-2h2l1-2h2l1-2h2v-1l5-1v-1zm-26 64a94.787 94.787 0 011 15v8h1v7h1v6h1v1h-1c-2.126 5.49-4.769 3.877-5 12 6.378 3.588 6.742 4.766 16 3 2.466-4.483 5.649-6.057 6-13-1.139-1.139-.4 0-1-2l-6-2c-.472-.293-.883-1.387-2-2v-29h2v-1l3 1c2.325 6.277 1.052 17.965 1 26 3.414.573 6.117 1.7 7 5 2.307 1.977 2.114 5.571 2 10h-1v3l-2 1v2l-3 2v2c-1.154 1.442-4.551 2.263-6 4-9.654.345-19.188-.908-21-8-.943-1.07-1.92-6.48-1-9h1l1-4 3-2-1-12h-1v-23a12.71 12.71 0 015-1zm-8 79v-2l-4-3v-2l-2-1v-1H40v1l-6 1v1h-2l-1 2h-2l-1 2c-3.463 3.283-6.712 5.418-7 12l3 1c3.222 2.893 13.324-.7 16-2v-1h3v-1h2v-1l6-1v-1h2v-1l7-1v-1h7v-1h8c8.527-2.466 18.961.138 28 0z" fill-rule="evenodd"/></svg>