<svg xmlns="http://www.w3.org/2000/svg" width="243" height="249.281"><path data-name="Color Fill 1" d="M166 64c1.033 13.544 1.333 24.805-2 36h13c11.469-5.888 19.463-4.372 26-15-8.819-10.034 1.1-21.14 7-26a63.772 63.772 0 0118 2l7 8c-.314 10.568-5.438 9.753-8 16l-1 16c-7.244 17.843-30.033 23.548-51 28v4l4 17c10.037 5.17 22.712 14.173 34 17 5.617-6.86 16.24-6.657 26-4 2.709 4.935 4.116 7.307 4 16-6.846 10.359-9.573 21.052-27 21-12.877-8.346-40.5-16.9-47 0 15.261.367 17.3 9.7 28 14 5.872-5.215 14.784-5.208 23-3 3.512 14.363-15.523 41.83-34 32l-14-10c-24.6-7.472-38.208 11.684-64 6-10.51-2.316-33.975-5.451-52-2-12.106 2.318-37.066 16.588-49 11-4.886-1.845-6.581-4.65-7-11 19.177-27.354 34.987-21.561 78-21v-1c-11.77-14.33-7.161-53.937-7-79h-3c-10.855 7.309-15.452 18.538-24 28l-2-1c-2.327-1.818-1.583-1.05-2-5l20-26c-5.821-.978-9.235-4.019-12-8-11.516 6.356-19.264 20.92-34 23v-2l-1-3c9.773-6.23 23.185-14.776 30-24-2.833-2.627-3.07-5.206-7-7-5.945 4.082-18.209 7.845-26 9-1.1-2.1-1.3-1.9-2-5 6.793-3.681 24.279-6.128 28-13-10.118-16.545 1.577-80.944 15-83 4 5.764 22.624 27.3 29 29l14-3c-.411-14.507 3.715-43.047 16-45l19 19 10 15 11 4c5.452-6.723 7.807-19.45 10-29l5-1 2 4-11 33 2 2 2-1c10.559-4.289 15.339-16.508 28-18l1 2-1 2c-4.55 8.165-17.635 16.625-26 21 1.611 5.8 4.522 5.542 12 5 11.056-5.6 20.408-7.5 29-15l2 1c1.786 1.888 1.46 1.357 2 5-13.736 6.84-19.175 14.958-41 15zM108 9c-3.392 12.254-6.891 23.5-7 40-3.127 1.994-3.425 2.753-9 3l-18 3-24-27-1 1c-6.8 8.761-8 23.885-8 39-.016 51.147 10.64 62.236 62 62 9.553-.044 16.008-1.086 23-4 22.992-9.583 44.975-36.334 31-68-5.078-11.507-13.35-10.486-22-18-10.351-8.992-15.357-22.854-27-31zm4 18l5 1c1.324 4.5 2.691 5.853 3 12l-4 2-4-1V27zM51 47h4c3.5 6.036 7.525 10 8 19-4.523 2.627-5.215 2.446-12 2V47zm69 12c7.368 1.651 8.537 4.507 8 14-2.121 1.707-2.205 2.686-5 4l-10 1c-1.774-3.438-2.136-8.016-2-14l1-2zm-43 78c-.562 45.976-2.239 110.251 54 96 10.164-2.576 23.967-11.1 41-7 9.422 2.267 11.872 10.9 22 12 9.367-5.973 18.643-8.02 21-21l-8-1-12 5-20-14-16-2-1-5 18-18c19.111.251 29.417 10.281 48 11 5.82-7.654 12.008-8.72 12-23-3.438-1.774-8.016-2.136-14-2-4.122 4.234-7.648 6.436-14 6-8.255-9.153-28.378-9.679-34-21-4.288-5.479-5.741-18.09-6-27 17.471-9.84 40.8-8.879 51-26 2.993-5.024-.681-12.564 2-19 1.873-4.5 6.026-3.676 7-11l-5-4h-12l-3 5c-3.6 5.691.439 9.982 1 18-12.8 13.1-22.693 17.285-50 17-13.711 26.206-41 31.326-82 31zm-7-62l10 1c3.437 5.333 7.327 7.7 8 16l-2 1-2-1c-6.069-3.832-4.035-9.368-14-10-2.431 3.823-3.161 6.835-3 14-2.1 1.1-1.9 1.305-5 2-1.774-3.438-2.136-8.016-2-14 2.581-3.036 2.887-5.238 7-7zm33 10c4.017 1.476 3.531.885 4 6l-3 1-5 1-1-5zm19 3h7c1.815 3.089 2.644 3.835 3 9-5.379 6.775-6.256 15.436-15 19-7.84 5.011-19.8 2.24-28 0-1.994-3.127-2.753-3.425-3-9 12.014-6.624 25.345-11.077 36-19zm-30 64h5l1 21c6.329 12.052-1.264 17.936-2 29 4.69 1.388 6.367 2.8 13 3 3.7-5 6.782-5.939 7-15l-8-4v-30l4-1c2.872 5.7 2.169 17.247 2 26 4.183 2.013 6.016 4 9 7 .341 14.812-5.385 17.585-13 24-14.1.534-21.742-4.067-21-19 8.045-8.267.344-25.856 3-41zm-65 70c-8.809 5.29-13.339 8.105-20 15l1 5h13c14.705-11.989 40.336-12.055 67-12v-1l-7-7H27z" fill-rule="evenodd"/></svg>